<svg width="1012" height="448" viewBox="0 0 1012 448" fill="none" xmlns="http://www.w3.org/2000/svg">
<rect width="1012" height="448" fill="white"/>
<rect width="1012" height="448" fill="black"/>
<rect x="909.429" y="319.571" width="189.493" height="38.4286" transform="rotate(-90 909.429 319.571)" fill="white"/>
<rect x="794.143" y="358" width="38.4286" height="115.286" transform="rotate(-90 794.143 358)" fill="white"/>
<rect x="755.714" y="244.039" width="113.961" height="38.4286" transform="rotate(-90 755.714 244.039)" fill="white"/>
<rect x="794.143" y="282.468" width="38.4286" height="115.286" transform="rotate(-90 794.143 282.468)" fill="white"/>
<rect x="794.143" y="130.079" width="38.4286" height="115.286" transform="rotate(-90 794.143 130.079)" fill="white"/>
<rect x="678.857" y="316.921" width="189.493" height="38.4286" transform="rotate(-90 678.857 316.921)" fill="white"/>
<rect x="563.571" y="355.35" width="38.4286" height="115.286" transform="rotate(-90 563.571 355.35)" fill="white"/>
<rect x="525.143" y="316.921" width="189.493" height="38.4286" transform="rotate(-90 525.143 316.921)" fill="white"/>
<rect x="563.571" y="127.429" width="38.4286" height="115.286" transform="rotate(-90 563.571 127.429)" fill="white"/>
<path d="M448.286 91.6503H486.714V168.507H448.286V91.6503Z" fill="white"/>
<path d="M294.572 91.6503H448.286V130.079H294.572V91.6503Z" fill="white"/>
<path d="M409.857 168.507H448.286V206.936H409.857V168.507Z" fill="white"/>
<path d="M371.429 206.936H409.857V245.365H371.429V206.936Z" fill="white"/>
<path d="M333 245.365H371.429V283.793H333V245.365Z" fill="white"/>
<path d="M294.572 283.793H333V322.222H294.572V283.793Z" fill="white"/>
<rect x="294.572" y="358" width="38.4286" height="192.143" transform="rotate(-90 294.572 358)" fill="white"/>
<rect x="217.714" y="130.079" width="38.4286" height="227.921" fill="white"/>
<rect x="64" y="130.079" width="38.4286" height="227.921" fill="white"/>
<rect x="71.9507" y="244.039" width="38.4286" height="172.266" transform="rotate(-90 71.9507 244.039)" fill="white"/>
<rect x="102.428" y="130.079" width="38.4286" height="115.286" transform="rotate(-90 102.428 130.079)" fill="white"/>
</svg>
